<?xml version="1.0" encoding="UTF-8" standalone="no"?>
<svg
   xmlns:dc="http://purl.org/dc/elements/1.1/"
   xmlns:cc="http://creativecommons.org/ns#"
   xmlns:rdf="http://www.w3.org/1999/02/22-rdf-syntax-ns#"
   xmlns:svg="http://www.w3.org/2000/svg"
   xmlns="http://www.w3.org/2000/svg"
   viewBox="0 0 816 620"
   height="120"
   width="216"
   xml:space="preserve"
   id="svg2"
   version="1.1"><metadata
     id="metadata8"><rdf:RDF><cc:Work
         rdf:about=""><dc:format>image/svg+xml</dc:format><dc:type
           rdf:resource="http://purl.org/dc/dcmitype/StillImage" /></cc:Work></rdf:RDF></metadata><defs
     id="defs6"><clipPath
       id="clipPath18"
       clipPathUnits="userSpaceOnUse"><path
         id="path16"
         d="M 0,465 H 612 V 0 H 0 Z" /></clipPath><clipPath
       id="clipPath30"
       clipPathUnits="userSpaceOnUse"><path
         id="path28"
         d="M 0,465 H 612 V 0 H 0 Z" /></clipPath><clipPath
       id="clipPath82"
       clipPathUnits="userSpaceOnUse"><path
         id="path80"
         d="m 149.477,228.393 c -6.974,-0.698 -13.581,-5.209 -18.602,-12.701 v 0 c -0.043,-0.063 -0.046,-0.145 -0.007,-0.21 v 0 c 0.035,-0.063 0.102,-0.101 0.173,-0.101 v 0 c 0.003,0 12.023,0.734 12.023,0.734 v 0 c 0.068,0.005 0.13,0.043 0.164,0.105 v 0 l 6.445,11.879 c 0.035,0.064 0.031,0.144 -0.01,0.206 v 0 c -0.037,0.056 -0.1,0.089 -0.167,0.089 v 0 c -0.006,0 -0.012,0 -0.019,-0.001" /></clipPath><linearGradient
       id="linearGradient92"
       spreadMethod="pad"
       gradientTransform="matrix(18.855484,0,0,-18.855484,130.841,221.88745)"
       gradientUnits="userSpaceOnUse"
       y2="0"
       x2="1"
       y1="0"
       x1="0"><stop
         id="stop88"
         offset="0"
         style="stop-opacity:1;stop-color:#ffffff" /><stop
         id="stop90"
         offset="1"
         style="stop-opacity:1;stop-color:#231f20" /></linearGradient><clipPath
       id="clipPath102"
       clipPathUnits="userSpaceOnUse"><path
         id="path100"
         d="m 149.327,223.268 -3.627,-6.686 c -0.034,-0.064 -0.031,-0.141 0.007,-0.202 v 0 c 0.037,-0.058 0.1,-0.094 0.169,-0.094 v 0 c 0.004,0 0.755,0.045 0.755,0.045 v 0 c 0.172,0 0.267,-0.02 0.357,-0.051 v 0 c 0.041,-0.014 1.029,-0.354 2.474,-1.219 v 0 c 0.032,-0.018 0.067,-0.028 0.103,-0.028 v 0 c 0.034,0 0.068,0.009 0.099,0.026 v 0 c 0.063,0.037 0.101,0.104 0.1,0.176 v 0 l -0.061,7.939 c -0.001,0.091 -0.064,0.17 -0.152,0.193 v 0 c -0.016,0.004 -0.032,0.006 -0.048,0.006 v 0 c -0.072,0 -0.14,-0.04 -0.176,-0.105" /></clipPath><linearGradient
       id="linearGradient112"
       spreadMethod="pad"
       gradientTransform="matrix(4.0886273,0,0,-4.0886273,145.67603,219.20288)"
       gradientUnits="userSpaceOnUse"
       y2="0"
       x2="1"
       y1="0"
       x1="0"><stop
         id="stop108"
         offset="0"
         style="stop-opacity:1;stop-color:#ffffff" /><stop
         id="stop110"
         offset="1"
         style="stop-opacity:1;stop-color:#231f20" /></linearGradient><clipPath
       id="clipPath122"
       clipPathUnits="userSpaceOnUse"><path
         id="path120"
         d="M 0,465 H 612 V 0 H 0 Z" /></clipPath><clipPath
       id="clipPath130"
       clipPathUnits="userSpaceOnUse"><path
         id="path128"
         d="M 288.997,387.112 H 586.169 V 72.6303 H 288.997 Z" /></clipPath><clipPath
       id="clipPath134"
       clipPathUnits="userSpaceOnUse"><path
         id="path132"
         d="m 477.514,72.63 c -0.092,0 -0.173,0.063 -0.194,0.154 -0.023,0.094 0.025,0.191 0.114,0.23 4.913,2.132 12.158,6.365 18.779,14.421 14.859,18.084 20.246,46.726 16.009,85.131 -2.856,25.88 -13.364,45.64 -31.234,58.733 -20.759,15.21 -47.804,18.402 -66.836,18.402 -11.276,0 -20.34,-1.102 -24.741,-1.76 -0.009,-0.001 -0.019,-0.002 -0.029,-0.002 -0.068,0 -0.133,0.035 -0.17,0.094 -0.042,0.067 -0.04,0.153 0.005,0.219 3.165,4.635 9.382,16.788 -1.221,29.511 -4.912,5.894 -10.821,8.882 -17.564,8.882 -4.716,0 -8.777,-1.47 -11.355,-2.704 -0.027,-0.013 -0.056,-0.02 -0.086,-0.02 -0.044,0 -0.087,0.015 -0.123,0.043 -0.06,0.047 -0.088,0.123 -0.073,0.198 1.999,9.676 7.007,43.298 -12.468,69.712 -12.048,16.343 -31.282,27.102 -57.167,31.979 -0.101,0.019 -0.171,0.112 -0.162,0.214 0.01,0.103 0.095,0.181 0.199,0.182 l 94.805,0.546 c 0.369,0.032 3.872,0.317 9.296,0.317 19.047,0 63.894,-3.645 68.933,-37.402 1.311,-14.415 -4.547,-30.081 -4.606,-30.237 -0.11,-0.296 -0.073,-0.631 0.1,-0.897 0.173,-0.265 0.466,-0.434 0.782,-0.452 0.242,-0.013 24.326,-1.477 33.08,-14.966 3.965,-6.111 4.203,-13.853 0.706,-23.012 -0.127,-0.334 -0.065,-0.714 0.161,-0.991 0.192,-0.232 0.473,-0.366 0.773,-0.366 0.056,0 0.112,0.005 0.168,0.015 0.087,0.014 8.798,1.46 20.777,1.46 14.919,0 35.681,-2.289 49.871,-13.193 9.528,-7.322 14.975,-17.653 16.189,-30.708 0.624,-6.708 1.388,-13.646 2.128,-20.355 5.69,-51.698 11.574,-105.157 -34.885,-126.645 -0.058,-0.026 -0.113,-0.058 -0.163,-0.095 -0.186,-0.133 -19.085,-13.353 -69.785,-16.637 -0.004,0 -0.009,-0.001 -0.013,-0.001" /></clipPath><linearGradient
       id="linearGradient140"
       spreadMethod="pad"
       gradientTransform="matrix(16,-222.66667,-222.66667,-16,433.6217,335.16306)"
       gradientUnits="userSpaceOnUse"
       y2="0"
       x2="1"
       y1="0"
       x1="0"><stop
         id="stop136"
         offset="0"
         style="stop-opacity:1;stop-color:#ffffff" /><stop
         id="stop138"
         offset="1"
         style="stop-opacity:1;stop-color:#231f20" /></linearGradient><clipPath
       id="clipPath162"
       clipPathUnits="userSpaceOnUse"><path
         id="path160"
         d="M 61.9581,381.583 H 505.697 V 68.3778 H 61.9581 Z" /></clipPath><clipPath
       id="clipPath166"
       clipPathUnits="userSpaceOnUse"><path
         id="path164"
         d="m 130.329,147.452 c 0.051,0 0.1,-0.02 0.137,-0.057 0.129,-0.127 0.342,-0.281 0.621,-0.294 l 1.984,-0.089 c 0.067,-0.002 0.127,-0.039 0.16,-0.096 7.846,-13.347 19.317,-21.002 31.471,-21.002 22.646,0 41.069,26.282 41.069,58.588 0,32.305 -18.423,58.587 -41.069,58.587 -14.252,0 -27.284,-10.343 -34.862,-27.668 -0.029,-0.068 -0.094,-0.113 -0.167,-0.117 l -1.372,-0.085 c -0.229,-0.013 -0.445,-0.117 -0.624,-0.298 -7.665,-2.401 -13.169,-16.51 -13.169,-33.597 0,-19.008 6.729,-33.898 15.319,-33.898 0.145,0 0.296,0.01 0.487,0.025 0.005,0 0.01,0.001 0.015,0.001 m 159.656,85.981 c -7.116,0 -13.725,-5.63 -16.838,-14.344 -0.02,-0.056 -0.065,-0.1 -0.121,-0.119 l -3.392,-1.158 c -4.66,-1.593 -10.459,-3.575 -16.579,-5.572 -9.861,-3.219 -11.949,-9.169 -12.033,-9.421 -0.046,-0.139 -0.06,-0.289 -0.042,-0.433 l 11.408,-89.308 c 0.052,-0.408 0.356,-0.741 0.758,-0.83 l 11.733,-2.608 c 0.069,-0.015 0.141,-0.023 0.213,-0.023 0.098,0 0.196,0.015 0.292,0.044 l 5.214,1.63 c 0.407,0.128 0.683,0.5 0.687,0.926 l 0.645,84.216 c 10e-4,0.085 0.055,0.16 0.137,0.185 l 0.936,0.296 c 0.019,0.006 0.039,0.009 0.059,0.009 0.079,0 0.154,-0.05 0.183,-0.129 3.147,-8.556 9.718,-14.085 16.74,-14.085 1.352,0 2.72,0.206 4.065,0.613 l 0.343,-0.002 c 10.304,0 18.693,11.377 18.693,25.362 0,13.985 -8.389,25.362 -18.701,25.362 -1.352,0 -2.719,-0.205 -4.065,-0.612 z M 225.589,68.378 c -11.362,0 -22.303,0.057 -32.519,0.171 -60.403,0.667 -92.275,4.303 -110.027,23.157 -18.56,19.712 -21.638,56.07 -21.011,120.572 0.278,28.69 9.062,50.866 26.109,65.913 21.88,19.312 52.189,22.196 68.309,22.196 6.054,0 9.735,-0.411 9.771,-0.415 0.035,-0.004 0.07,-0.006 0.106,-0.006 0.295,0 0.572,0.129 0.758,0.354 0.212,0.256 0.279,0.598 0.18,0.915 -0.093,0.299 -9.135,30.143 8.361,53.147 13.729,18.049 39.715,27.201 77.239,27.201 2.578,0 5.255,-0.045 7.958,-0.132 1.705,-0.055 3.38,-0.137 5.041,-0.231 0.054,-0.003 0.104,-0.028 0.138,-0.069 0.193,-0.227 0.449,-0.352 0.72,-0.352 l 4.812,0.027 c 33.169,-2.84 57.034,-13.845 70.949,-32.708 21.84,-29.607 11.406,-68.689 11.297,-69.08 -0.106,-0.393 0.045,-0.817 0.376,-1.054 0.168,-0.119 0.364,-0.182 0.57,-0.182 0.196,0 0.386,0.058 0.549,0.169 0.221,0.15 5.503,3.691 12.26,3.691 6.003,0 11.31,-2.715 15.773,-8.071 12.305,-14.767 -0.074,-28.125 -0.607,-28.687 -0.297,-0.31 -0.356,-0.771 -0.15,-1.145 0.172,-0.313 0.501,-0.507 0.858,-0.507 0.063,0 0.127,0.006 0.192,0.019 0.108,0.021 11.388,2.19 26.841,2.19 18.284,0 44.254,-3.058 64.141,-17.63 17.014,-12.466 27.024,-31.33 29.753,-56.067 4.081,-36.97 -1.026,-64.471 -15.179,-81.736 C 477.178,75.414 462.855,73.824 462.25,73.763 460.96,73.708 334.567,68.379 225.589,68.378" /></clipPath><linearGradient
       id="linearGradient172"
       spreadMethod="pad"
       gradientTransform="matrix(88.655456,-290.73773,-290.73773,-88.655456,217.00899,376.50079)"
       gradientUnits="userSpaceOnUse"
       y2="0"
       x2="1"
       y1="0"
       x1="0"><stop
         id="stop168"
         offset="0"
         style="stop-opacity:1;stop-color:#ffffff" /><stop
         id="stop170"
         offset="1"
         style="stop-opacity:1;stop-color:#231f20" /></linearGradient><clipPath
       id="clipPath194"
       clipPathUnits="userSpaceOnUse"><path
         id="path192"
         d="M 0,465 H 612 V 0 H 0 Z" /></clipPath><clipPath
       id="clipPath202"
       clipPathUnits="userSpaceOnUse"><path
         id="path200"
         d="m 130.841,228.394 h 18.855 v -13.013 h -18.855 z" /></clipPath><clipPath
       id="clipPath218"
       clipPathUnits="userSpaceOnUse"><path
         id="path216"
         d="M 112.667,213 H 140 v -65.333 h -27.333 z" /></clipPath><clipPath
       id="clipPath234"
       clipPathUnits="userSpaceOnUse"><path
         id="path232"
         d="m 136.828,228.486 h 44.005 v -89.819 h -44.005 z" /></clipPath><clipPath
       id="clipPath250"
       clipPathUnits="userSpaceOnUse"><path
         id="path248"
         d="m 131.487,214.337 h 30.515 v -68.148 h -30.515 z" /></clipPath><clipPath
       id="clipPath266"
       clipPathUnits="userSpaceOnUse"><path
         id="path264"
         d="M 130.482,241.5 H 202 V 125.667 h -71.518 z" /></clipPath><clipPath
       id="clipPath282"
       clipPathUnits="userSpaceOnUse"><path
         id="path280"
         d="m 145.676,223.373 h 4.089 v -8.34 h -4.089 z" /></clipPath><clipPath
       id="clipPath298"
       clipPathUnits="userSpaceOnUse"><path
         id="path296"
         d="M 297.729,231.777 H 311.75 V 186.548 H 297.729 Z" /></clipPath><clipPath
       id="clipPath314"
       clipPathUnits="userSpaceOnUse"><path
         id="path312"
         d="m 368.655,334.259 h 82.719 V 291.7 h -82.719 z" /></clipPath><clipPath
       id="clipPath330"
       clipPathUnits="userSpaceOnUse"><path
         id="path328"
         d="m 396.287,289.316 h 89.558 v -39.54 h -89.558 z" /></clipPath><clipPath
       id="clipPath346"
       clipPathUnits="userSpaceOnUse"><path
         id="path344"
         d="m 487.753,143.807 h 85.868 V 79.3484 h -85.868 z" /></clipPath><clipPath
       id="clipPath362"
       clipPathUnits="userSpaceOnUse"><path
         id="path360"
         d="M 274.897,231.625 H 307.25 V 183.75 h -32.353 z" /></clipPath><clipPath
       id="clipPath378"
       clipPathUnits="userSpaceOnUse"><path
         id="path376"
         d="m 242.031,219.666 h 52.784 V 109.041 h -52.784 z" /></clipPath><clipPath
       id="clipPath394"
       clipPathUnits="userSpaceOnUse"><path
         id="path392"
         d="M 83.4145,154.667 H 489.096 V 69.3726 H 83.4145 Z" /></clipPath><clipPath
       id="clipPath410"
       clipPathUnits="userSpaceOnUse"><path
         id="path408"
         d="M 0,465 H 612 V 0 H 0 Z" /></clipPath><clipPath
       id="clipPath418"
       clipPathUnits="userSpaceOnUse"><path
         id="path416"
         d="m 112.667,213 h 24.928 v -47.491 h -24.928 z" /></clipPath><clipPath
       id="clipPath434"
       clipPathUnits="userSpaceOnUse"><path
         id="path432"
         d="m 142.473,239.189 h 28.195 v -8.116 h -28.195 z" /></clipPath><clipPath
       id="clipPath450"
       clipPathUnits="userSpaceOnUse"><path
         id="path448"
         d="M 334.773,385.322 H 435.681 V 341.083 H 334.773 Z" /></clipPath><clipPath
       id="clipPath466"
       clipPathUnits="userSpaceOnUse"><path
         id="path464"
         d="m 408.076,310.258 h 55.006 v -21.575 h -55.006 z" /></clipPath><clipPath
       id="clipPath482"
       clipPathUnits="userSpaceOnUse"><path
         id="path480"
         d="m 494.693,262.529 h 63.413 v -35.948 h -63.413 z" /></clipPath><clipPath
       id="clipPath498"
       clipPathUnits="userSpaceOnUse"><path
         id="path496"
         d="m 519.156,235.115 h 49.347 v -36.928 h -49.347 z" /></clipPath><clipPath
       id="clipPath514"
       clipPathUnits="userSpaceOnUse"><path
         id="path512"
         d="m 450.151,271.848 h 84.687 v -21.979 h -84.687 z" /></clipPath><clipPath
       id="clipPath530"
       clipPathUnits="userSpaceOnUse"><path
         id="path528"
         d="M 275.344,231.612 H 294.84 V 219.64 h -19.496 z" /></clipPath><clipPath
       id="clipPath546"
       clipPathUnits="userSpaceOnUse"><path
         id="path544"
         d="m 255.315,213.263 h 17.851 v -8.64 h -17.851 z" /></clipPath><clipPath
       id="clipPath562"
       clipPathUnits="userSpaceOnUse"><path
         id="path560"
         d="m 271.911,218.12 h 15.091 v -7.608 h -15.091 z" /></clipPath><clipPath
       id="clipPath578"
       clipPathUnits="userSpaceOnUse"><path
         id="path576"
         d="M 64.8929,289.294 H 156.721 V 211.593 H 64.8929 Z" /></clipPath><clipPath
       id="clipPath594"
       clipPathUnits="userSpaceOnUse"><path
         id="path592"
         d="M 180.984,375.638 H 300.099 V 311.844 H 180.984 Z" /></clipPath><clipPath
       id="clipPath610"
       clipPathUnits="userSpaceOnUse"><path
         id="path608"
         d="m 259.195,338.361 h 53.962 v -18.78 h -53.962 z" /></clipPath><clipPath
       id="clipPath626"
       clipPathUnits="userSpaceOnUse"><path
         id="path624"
         d="m 371.618,267.128 h 12.806 v -21.147 h -12.806 z" /></clipPath><clipPath
       id="clipPath642"
       clipPathUnits="userSpaceOnUse"><path
         id="path640"
         d="m 402.248,231.015 h 84.313 V 148.57 h -84.313 z" /></clipPath><clipPath
       id="clipPath658"
       clipPathUnits="userSpaceOnUse"><path
         id="path656"
         d="m 362.672,276.71 h 18.152 v -13.26 h -18.152 z" /></clipPath><clipPath
       id="clipPath674"
       clipPathUnits="userSpaceOnUse"><path
         id="path672"
         d="M 0,465 H 612 V 0 H 0 Z" /></clipPath></defs><g
     transform="matrix(1.3333333,0,0,-1.3333333,0,620)"
     id="g10"><g
       id="g12"><g
         clip-path="url(#clipPath18)"
         id="g14"><g
           transform="translate(591.5996,215.3594)"
           id="g20"><path
             id="path22"
             style="fill:#000000;fill-opacity:1;fill-rule:nonzero;stroke:none"
             d="m 0,0 -0.054,0.477 c -0.713,6.498 -1.451,13.216 -2.052,19.683 -1.49,15.996 -8.262,28.731 -20.13,37.851 -16.557,12.72 -39.486,15.39 -55.806,15.39 -3.166,0 -6.356,-0.097 -9.532,-0.289 0.362,6.807 -1.238,12.995 -4.777,18.45 -6.952,10.71 -19.335,15.675 -29.815,17.966 1.56,6.736 2.838,15.408 2.055,24.007 -0.015,0.163 -0.035,0.325 -0.056,0.463 -2.334,15.635 -12.8,35.857 -49.409,43.403 -11.155,2.3 -22.06,2.783 -29.243,2.783 -5.205,0 -8.198,0 -10.415,-0.347 l -110.698,-0.632 c -3.566,0.297 -7.278,0.509 -11.037,0.631 -2.862,0.092 -5.704,0.139 -8.449,0.139 -41.756,0 -71.075,-10.719 -87.143,-31.86 -13.426,-17.668 -14.021,-38.173 -12.537,-51.186 -18.206,-0.138 -51.16,-3.723 -75.538,-25.233 -19.7,-17.383 -29.849,-42.605 -30.164,-74.966 -0.666,-68.688 2.903,-107.715 24.262,-130.4 20.684,-21.969 55.123,-26.175 119.836,-26.89 10.477,-0.115 21.704,-0.173 33.369,-0.173 111.794,0 237.086,5.287 242.409,5.513 56.236,1.901 80.047,15.357 84.859,18.491 23.645,11.175 37.408,30.397 42.071,58.755 C 5.945,-54.008 2.924,-26.559 0,0" /></g></g></g><g
       id="g24"><g
         clip-path="url(#clipPath30)"
         id="g26"><g
           transform="translate(131.041,215.3809)"
           id="g32"><path
             id="path34"
             style="fill:#bcbec0;fill-opacity:1;fill-rule:nonzero;stroke:none"
             d="m 0,0 c -0.071,0 -0.138,0.038 -0.173,0.101 -0.038,0.066 -0.035,0.148 0.007,0.211 5.021,7.491 11.628,12.001 18.602,12.7 0.006,10e-4 0.013,10e-4 0.02,10e-4 0.066,0 0.129,-0.033 0.166,-0.089 0.041,-0.062 0.045,-0.141 0.009,-0.206 L 12.187,0.839 C 12.154,0.778 12.092,0.739 12.023,0.734 12.023,0.734 0.004,0 0,0" /></g><g
           transform="translate(126.3335,147.6665)"
           id="g36"><path
             id="path38"
             style="fill:#414042;fill-opacity:1;fill-rule:nonzero;stroke:none"
             d="m 0,0 c -7.408,0 -13.667,14.96 -13.667,32.667 0,16.761 5.71,31.375 12.729,32.577 0.356,0.061 0.654,0.089 0.938,0.089 0.206,0 0.409,-0.015 0.613,-0.038 C 0.802,65.274 0.989,65.239 1.176,65.199 1.635,65.1 2.094,64.943 2.54,64.733 8.883,61.746 13.667,47.96 13.667,32.667 13.667,19.944 10.312,7.892 5.318,2.677 4.849,2.187 4.353,1.751 3.845,1.381 L 3.648,1.244 C 3.067,0.845 2.479,0.54 1.898,0.337 1.259,0.114 0.621,0 0,0" /></g><g
           transform="translate(151.4165,138.6665)"
           id="g40"><path
             id="path42"
             style="fill:#bcbec0;fill-opacity:1;fill-rule:nonzero;stroke:none"
             d="m 0,0 c -5.069,0 -10.09,2.039 -14.52,5.895 -0.063,0.056 -0.085,0.146 -0.054,0.225 0.031,0.076 0.104,0.126 0.186,0.126 0.003,0 16.597,-0.744 16.647,-0.746 0.233,0 0.468,0.088 0.651,0.249 0.402,0.352 9.841,8.957 9.673,37.257 C 12.475,61.306 5.918,70.357 0.437,74.728 0.39,74.766 0.362,74.822 0.362,74.883 L 0.25,89.175 c -0.001,0.117 -0.029,0.24 -0.083,0.366 -0.026,0.063 -0.02,0.134 0.018,0.19 0.037,0.056 0.1,0.089 0.166,0.089 H 0.354 C 16.379,89.528 29.416,69.385 29.416,44.917 29.416,20.15 16.22,0 0,0" /></g><g
           transform="translate(134.4336,147.0308)"
           id="g44"><path
             id="path46"
             style="fill:#414042;fill-opacity:1;fill-rule:nonzero;stroke:none"
             d="M 0,0 C -0.053,0.002 -0.103,0.026 -0.139,0.065 -0.612,0.583 -1.04,1.08 -1.442,1.574 -1.506,1.653 -1.5,1.768 -1.429,1.84 c 5.549,5.644 8.995,17.7 8.995,31.463 0,14.818 -4.192,27.969 -10.434,32.724 -0.066,0.051 -0.094,0.137 -0.07,0.217 0.024,0.08 0.096,0.136 0.179,0.142 l 12.729,0.777 2.018,0.143 c 0.442,-0.159 1.72,-0.722 3.366,-1.932 0.679,-0.5 1.356,-1.065 2.013,-1.679 C 21.967,59.399 27.471,50.869 27.566,34.63 27.711,10.213 20.372,0.853 18.899,-0.775 18.861,-0.817 18.807,-0.841 18.75,-0.841 18.748,-0.841 0,0 0,0" /></g><g
           transform="translate(162,125.6665)"
           id="g48"><path
             id="path50"
             style="fill:#58595b;fill-opacity:1;fill-rule:nonzero;stroke:none"
             d="m 0,0 c -11.264,0 -22.077,6.978 -29.668,19.143 -0.04,0.063 -0.041,0.142 -0.004,0.207 0.036,0.061 0.102,0.099 0.173,0.099 0.003,0 0.927,-0.042 0.927,-0.042 0.051,-0.002 0.1,-0.024 0.135,-0.06 C -23.164,13.886 -16.99,11 -10.583,11 c 17.322,0 31.416,21.047 31.416,46.917 0,25.87 -14.094,46.916 -31.416,46.916 -7.558,0 -14.866,-4.089 -20.576,-11.514 -0.04,-0.051 -0.099,-0.078 -0.159,-0.078 -0.037,0 -0.075,0.01 -0.109,0.032 -0.087,0.057 -0.116,0.171 -0.067,0.263 7.549,13.962 19.323,22.297 31.494,22.297 22.056,0 40,-25.981 40,-57.916 C 40,25.981 22.056,0 0,0" /></g><g
           transform="translate(149.5645,215.0332)"
           id="g52"><path
             id="path54"
             style="fill:#414042;fill-opacity:1;fill-rule:nonzero;stroke:none"
             d="m 0,0 c -0.036,0 -0.071,0.01 -0.103,0.028 -1.444,0.865 -2.432,1.205 -2.473,1.219 -0.091,0.031 -0.186,0.051 -0.358,0.051 0,0 -0.751,-0.045 -0.754,-0.045 -0.069,0 -0.132,0.036 -0.169,0.093 -0.039,0.062 -0.042,0.139 -0.007,0.203 l 3.627,6.685 c 0.035,0.066 0.103,0.105 0.175,0.105 0.017,0 0.033,-0.002 0.049,-0.006 C 0.075,8.311 0.138,8.232 0.139,8.141 L 0.2,0.202 C 0.201,0.129 0.162,0.062 0.099,0.026 0.068,0.009 0.034,0 0,0" /></g><g
           transform="translate(301.666,186.5483)"
           id="g56"><path
             id="path58"
             style="fill:#6d6e71;fill-opacity:1;fill-rule:nonzero;stroke:none"
             d="m 0,0 c -0.059,0 -0.116,0.026 -0.155,0.074 -0.065,0.079 -0.059,0.195 0.013,0.267 4.91,4.946 7.726,12.527 7.726,20.798 0,10.234 -4.484,19.544 -11.424,23.718 -0.086,0.052 -0.12,0.159 -0.08,0.25 0.032,0.075 0.105,0.122 0.183,0.122 0.018,0 0.036,-0.003 0.054,-0.008 C 4.294,43.007 10.084,33.142 10.084,21.764 10.084,12.486 6.168,3.956 0.109,0.032 0.075,0.011 0.038,0 0,0" /></g><g
           transform="translate(476.6191,70.8408)"
           id="g60"><path
             id="path62"
             style="fill:#00a79d;fill-opacity:1;fill-rule:nonzero;stroke:none"
             d="m 0,0 c -0.092,0 -0.173,0.063 -0.194,0.153 -0.023,0.095 0.025,0.192 0.114,0.231 4.913,2.132 12.158,6.365 18.779,14.421 14.86,18.084 20.246,46.726 16.009,85.131 -2.855,25.879 -13.364,45.64 -31.234,58.732 -20.759,15.21 -47.804,18.403 -66.836,18.403 -11.276,0 -20.34,-1.103 -24.741,-1.76 -0.009,-0.001 -0.019,-0.002 -0.029,-0.002 -0.068,0 -0.133,0.035 -0.17,0.093 -0.042,0.068 -0.04,0.154 0.005,0.22 3.165,4.634 9.382,16.788 -1.221,29.511 -4.912,5.893 -10.821,8.882 -17.564,8.882 -4.716,0 -8.777,-1.471 -11.355,-2.704 -0.027,-0.013 -0.056,-0.02 -0.085,-0.02 -0.044,0 -0.088,0.015 -0.124,0.042 -0.06,0.047 -0.087,0.124 -0.073,0.199 1.999,9.676 7.007,43.298 -12.468,69.712 -12.048,16.343 -31.282,27.102 -57.167,31.979 -0.101,0.019 -0.171,0.111 -0.162,0.214 0.01,0.103 0.096,0.181 0.199,0.182 l 94.805,0.546 c 0.369,0.031 3.872,0.316 9.296,0.316 19.047,0 63.894,-3.644 68.933,-37.401 1.311,-14.415 -4.547,-30.081 -4.606,-30.237 -0.11,-0.296 -0.073,-0.632 0.1,-0.898 0.173,-0.264 0.466,-0.433 0.782,-0.451 0.242,-0.013 24.326,-1.477 33.08,-14.967 3.965,-6.11 4.203,-13.852 0.706,-23.011 -0.127,-0.334 -0.065,-0.714 0.161,-0.991 0.192,-0.233 0.473,-0.366 0.773,-0.366 0.057,0 0.112,0.005 0.168,0.014 0.087,0.015 8.798,1.46 20.777,1.46 14.919,0 35.681,-2.289 49.871,-13.192 9.529,-7.322 14.975,-17.653 16.189,-30.708 0.624,-6.709 1.388,-13.646 2.128,-20.355 C 110.536,91.679 116.42,38.221 69.961,16.733 69.903,16.707 69.849,16.675 69.798,16.638 69.612,16.505 50.713,3.285 0.013,0 0.009,0 0.004,0 0,0" /></g><g
           transform="translate(290.125,183.75)"
           id="g64"><path
             id="path66"
             style="fill:#6d6e71;fill-opacity:1;fill-rule:nonzero;stroke:none"
             d="m 0,0 c -0.641,0 -1.312,0.057 -1.996,0.168 -5.651,0.921 -10.593,5.713 -13.219,12.816 -0.019,0.052 -0.016,0.109 0.007,0.158 0.025,0.049 0.068,0.086 0.12,0.103 L 5.175,19.63 c 0.387,0.121 0.659,0.46 0.696,0.863 l 1,11 c 0.029,0.319 -0.098,0.635 -0.34,0.845 -0.064,0.056 -0.086,0.146 -0.054,0.225 0.029,0.088 0.032,0.132 0.038,0.228 0.051,0.499 -0.223,0.933 -0.665,1.077 -7.819,2.535 -13.043,4.049 -13.975,4.049 -0.298,0 -0.856,-0.122 -1.756,-0.383 -0.633,-0.183 -1.446,-0.439 -2.494,-0.782 -0.583,-0.19 -1.257,-0.416 -1.992,-0.662 -0.021,-0.007 -0.042,-0.01 -0.064,-0.01 -0.055,0 -0.109,0.023 -0.147,0.065 -0.053,0.058 -0.068,0.142 -0.036,0.215 2.055,4.708 5.234,8.319 8.951,10.167 1.834,0.895 3.735,1.348 5.663,1.348 0.155,0 0.309,-0.007 0.463,-0.015 0,0 0.102,10e-4 0.103,0 C 9.851,47.431 17.125,36.925 17.125,23.937 17.125,12.787 11.701,3.209 3.935,0.645 2.639,0.217 1.315,0 0,0" /></g><g
           transform="translate(264.5708,109.0459)"
           id="g68"><path
             id="path70"
             style="fill:#6d6e71;fill-opacity:1;fill-rule:nonzero;stroke:none"
             d="m 0,0 -10.864,2.414 c -0.082,0.018 -0.144,0.086 -0.155,0.169 l -11.52,90.181 c -0.004,0.037 0.001,0.075 0.017,0.11 0.414,0.897 2.886,5.505 10.928,8.129 6.323,2.064 12.321,4.114 17.139,5.762 l 4.326,1.476 c 0.882,0.299 1.712,0.579 2.483,0.837 0.872,0.291 1.66,0.551 2.344,0.771 1.531,0.492 2.439,0.751 2.699,0.771 0.742,-0.031 6.077,-1.597 12.434,-3.642 0.08,-0.026 0.135,-0.099 0.139,-0.183 0.003,-0.084 -0.046,-0.161 -0.124,-0.193 L -5.951,91.879 c -0.39,-0.16 -0.638,-0.551 -0.619,-0.971 l 4,-86.334 c 0.025,-0.534 0.464,-0.953 0.998,-0.953 0.598,0.026 1.026,0.495 1,1.046 l -3.96,85.489 c -0.004,0.085 0.045,0.162 0.123,0.195 l 34.377,14.138 c 0.024,0.01 0.05,0.015 0.076,0.015 0.042,0 0.084,-0.013 0.119,-0.039 0.056,-0.041 0.087,-0.109 0.08,-0.179 l -0.737,-8.112 c -0.007,-0.08 -0.062,-0.148 -0.139,-0.173 L 5.795,88.574 C 5.38,88.444 5.099,88.063 5.096,87.628 L 4.437,1.503 C 4.436,1.417 4.379,1.34 4.296,1.314 L 0.103,0.004 C 0.083,-0.001 0.063,-0.005 0.043,-0.005 0.029,-0.005 0.014,-0.003 0,0" /></g><g
           transform="translate(126.8467,145.6929)"
           id="g72"><path
             id="path74"
             style="fill:#00a79d;fill-opacity:1;fill-rule:nonzero;stroke:none"
             d="m 0,0 c 0.052,0 0.103,-0.021 0.14,-0.058 0.132,-0.129 0.35,-0.287 0.635,-0.3 l 2.03,-0.091 c 0.068,-0.003 0.129,-0.04 0.163,-0.098 8.024,-13.651 19.755,-21.479 32.185,-21.479 23.16,0 42,26.878 42,59.917 0,33.038 -18.84,59.916 -42,59.916 C 20.578,97.807 7.25,87.229 -0.5,69.511 -0.529,69.442 -0.596,69.396 -0.67,69.391 L -2.074,69.305 C -2.308,69.291 -2.529,69.185 -2.712,69 -10.551,66.544 -16.18,52.115 -16.18,34.641 c 0,-19.44 6.882,-34.667 15.667,-34.667 0.148,0 0.302,0.01 0.498,0.025 C -0.01,0 -0.005,0 0,0 m 163.278,87.932 c -7.278,0 -14.037,-5.758 -17.22,-14.669 -0.02,-0.057 -0.066,-0.102 -0.124,-0.122 l -3.469,-1.184 C 137.7,70.328 131.769,68.3 125.51,66.258 c -10.084,-3.292 -12.219,-9.377 -12.305,-9.635 -0.048,-0.142 -0.062,-0.295 -0.043,-0.442 l 11.666,-91.334 c 0.053,-0.417 0.364,-0.758 0.775,-0.849 l 12,-2.667 c 0.07,-0.016 0.144,-0.024 0.217,-0.024 0.1,0 0.201,0.015 0.299,0.046 l 5.333,1.666 c 0.416,0.13 0.698,0.511 0.701,0.947 l 0.66,86.127 c 0.001,0.087 0.057,0.163 0.14,0.189 l 0.958,0.302 c 0.02,0.006 0.04,0.009 0.06,0.009 0.081,0 0.158,-0.051 0.187,-0.131 3.219,-8.751 9.939,-14.405 17.12,-14.405 1.383,0 2.782,0.211 4.158,0.627 l 0.35,-0.002 c 10.538,0 19.117,11.635 19.117,25.938 0,14.302 -8.579,25.937 -19.125,25.937 -1.382,0 -2.781,-0.21 -4.157,-0.626 z m -65.857,-168.8 c -11.62,0 -22.809,0.059 -33.256,0.175 -61.774,0.683 -94.369,4.401 -112.524,23.682 -18.981,20.16 -22.128,57.343 -21.488,123.308 0.285,29.341 9.268,52.02 26.702,67.408 22.376,19.751 53.373,22.7 69.858,22.7 6.192,0 9.956,-0.421 9.994,-0.425 0.035,-0.004 0.071,-0.005 0.107,-0.005 0.303,0 0.585,0.131 0.776,0.361 0.217,0.262 0.285,0.612 0.184,0.936 -0.095,0.306 -9.342,30.827 8.551,54.353 14.04,18.458 40.616,27.817 78.99,27.817 2.637,0 5.375,-0.045 8.14,-0.134 1.743,-0.057 3.456,-0.141 5.155,-0.237 0.055,-0.003 0.106,-0.028 0.141,-0.07 0.197,-0.232 0.459,-0.36 0.736,-0.36 l 4.922,0.028 c 33.921,-2.905 58.327,-14.159 72.558,-33.45 22.336,-30.279 11.665,-70.247 11.554,-70.648 -0.109,-0.402 0.045,-0.835 0.384,-1.078 0.171,-0.121 0.372,-0.185 0.582,-0.185 0.201,0 0.396,0.059 0.562,0.172 0.226,0.154 5.628,3.775 12.538,3.775 6.14,0 11.567,-2.777 16.131,-8.255 12.585,-15.101 -0.075,-28.762 -0.62,-29.336 -0.304,-0.318 -0.365,-0.789 -0.154,-1.172 0.176,-0.32 0.512,-0.518 0.877,-0.518 0.065,0 0.13,0.006 0.197,0.019 0.11,0.022 11.646,2.24 27.45,2.24 18.698,0 45.258,-3.128 65.595,-18.03 17.401,-12.749 27.638,-32.041 30.429,-57.339 4.173,-37.809 -1.05,-65.933 -15.523,-83.591 -12.251,-14.944 -26.9,-16.571 -27.518,-16.633 -1.319,-0.057 -130.58,-5.507 -242.03,-5.508" /></g></g></g><g
       id="g76"><g
         clip-path="url(#clipPath82)"
         id="g78"><g
           id="g84"><g
             id="g86"><path
               id="path94"
               style="fill:url(#linearGradient92);stroke:none"
               d="m 149.477,228.393 c -6.974,-0.698 -13.581,-5.209 -18.602,-12.701 v 0 c -0.043,-0.063 -0.046,-0.145 -0.007,-0.21 v 0 c 0.035,-0.063 0.102,-0.101 0.173,-0.101 v 0 c 0.003,0 12.023,0.734 12.023,0.734 v 0 c 0.068,0.005 0.13,0.043 0.164,0.105 v 0 l 6.445,11.879 c 0.035,0.064 0.031,0.144 -0.01,0.206 v 0 c -0.037,0.056 -0.1,0.089 -0.167,0.089 v 0 c -0.006,0 -0.012,0 -0.019,-0.001" /></g></g></g></g><g
       id="g96"><g
         clip-path="url(#clipPath102)"
         id="g98"><g
           id="g104"><g
             id="g106"><path
               id="path114"
               style="fill:url(#linearGradient112);stroke:none"
               d="m 149.327,223.268 -3.627,-6.686 c -0.034,-0.064 -0.031,-0.141 0.007,-0.202 v 0 c 0.037,-0.058 0.1,-0.094 0.169,-0.094 v 0 c 0.004,0 0.755,0.045 0.755,0.045 v 0 c 0.172,0 0.267,-0.02 0.357,-0.051 v 0 c 0.041,-0.014 1.029,-0.354 2.474,-1.219 v 0 c 0.032,-0.018 0.067,-0.028 0.103,-0.028 v 0 c 0.034,0 0.068,0.009 0.099,0.026 v 0 c 0.063,0.037 0.101,0.104 0.1,0.176 v 0 l -0.061,7.939 c -0.001,0.091 -0.064,0.17 -0.152,0.193 v 0 c -0.016,0.004 -0.032,0.006 -0.048,0.006 v 0 c -0.072,0 -0.14,-0.04 -0.176,-0.105" /></g></g></g></g><g
       id="g116"><g
         clip-path="url(#clipPath122)"
         id="g118"><g
           id="g124"><g
             id="g126" /><g
             id="g154"><g
               style="opacity:0.5"
               id="g152"
               clip-path="url(#clipPath130)"><g
                 id="g150"><g
                   id="g148"
                   clip-path="url(#clipPath134)"><g
                     id="g146"><g
                       id="g144"><path
                         id="path142"
                         style="fill:url(#linearGradient140);stroke:none"
                         d="m 477.514,72.63 c -0.092,0 -0.173,0.063 -0.194,0.154 -0.023,0.094 0.025,0.191 0.114,0.23 4.913,2.132 12.158,6.365 18.779,14.421 14.859,18.084 20.246,46.726 16.009,85.131 -2.856,25.88 -13.364,45.64 -31.234,58.733 -20.759,15.21 -47.804,18.402 -66.836,18.402 -11.276,0 -20.34,-1.102 -24.741,-1.76 -0.009,-0.001 -0.019,-0.002 -0.029,-0.002 -0.068,0 -0.133,0.035 -0.17,0.094 -0.042,0.067 -0.04,0.153 0.005,0.219 3.165,4.635 9.382,16.788 -1.221,29.511 -4.912,5.894 -10.821,8.882 -17.564,8.882 -4.716,0 -8.777,-1.47 -11.355,-2.704 -0.027,-0.013 -0.056,-0.02 -0.086,-0.02 -0.044,0 -0.087,0.015 -0.123,0.043 -0.06,0.047 -0.088,0.123 -0.073,0.198 1.999,9.676 7.007,43.298 -12.468,69.712 -12.048,16.343 -31.282,27.102 -57.167,31.979 -0.101,0.019 -0.171,0.112 -0.162,0.214 0.01,0.103 0.095,0.181 0.199,0.182 l 94.805,0.546 c 0.369,0.032 3.872,0.317 9.296,0.317 19.047,0 63.894,-3.645 68.933,-37.402 1.311,-14.415 -4.547,-30.081 -4.606,-30.237 -0.11,-0.296 -0.073,-0.631 0.1,-0.897 0.173,-0.265 0.466,-0.434 0.782,-0.452 0.242,-0.013 24.326,-1.477 33.08,-14.966 3.965,-6.111 4.203,-13.853 0.706,-23.012 -0.127,-0.334 -0.065,-0.714 0.161,-0.991 0.192,-0.232 0.473,-0.366 0.773,-0.366 0.056,0 0.112,0.005 0.168,0.015 0.087,0.014 8.798,1.46 20.777,1.46 14.919,0 35.681,-2.289 49.871,-13.193 9.528,-7.322 14.975,-17.653 16.189,-30.708 0.624,-6.708 1.388,-13.646 2.128,-20.355 5.69,-51.698 11.574,-105.157 -34.885,-126.645 -0.058,-0.026 -0.113,-0.058 -0.163,-0.095 -0.186,-0.133 -19.085,-13.353 -69.785,-16.637 -0.004,0 -0.009,-0.001 -0.013,-0.001" /></g></g></g></g></g></g></g><g
           id="g156"><g
             id="g158" /><g
             id="g186"><g
               style="opacity:0.5"
               id="g184"
               clip-path="url(#clipPath162)"><g
                 id="g182"><g
                   id="g180"
                   clip-path="url(#clipPath166)"><g
                     id="g178"><g
                       id="g176"><path
                         id="path174"
                         style="fill:url(#linearGradient172);stroke:none"
                         d="m 130.329,147.452 c 0.051,0 0.1,-0.02 0.137,-0.057 0.129,-0.127 0.342,-0.281 0.621,-0.294 l 1.984,-0.089 c 0.067,-0.002 0.127,-0.039 0.16,-0.096 7.846,-13.347 19.317,-21.002 31.471,-21.002 22.646,0 41.069,26.282 41.069,58.588 0,32.305 -18.423,58.587 -41.069,58.587 -14.252,0 -27.284,-10.343 -34.862,-27.668 -0.029,-0.068 -0.094,-0.113 -0.167,-0.117 l -1.372,-0.085 c -0.229,-0.013 -0.445,-0.117 -0.624,-0.298 -7.665,-2.401 -13.169,-16.51 -13.169,-33.597 0,-19.008 6.729,-33.898 15.319,-33.898 0.145,0 0.296,0.01 0.487,0.025 0.005,0 0.01,0.001 0.015,0.001 m 159.656,85.981 c -7.116,0 -13.725,-5.63 -16.838,-14.344 -0.02,-0.056 -0.065,-0.1 -0.121,-0.119 l -3.392,-1.158 c -4.66,-1.593 -10.459,-3.575 -16.579,-5.572 -9.861,-3.219 -11.949,-9.169 -12.033,-9.421 -0.046,-0.139 -0.06,-0.289 -0.042,-0.433 l 11.408,-89.308 c 0.052,-0.408 0.356,-0.741 0.758,-0.83 l 11.733,-2.608 c 0.069,-0.015 0.141,-0.023 0.213,-0.023 0.098,0 0.196,0.015 0.292,0.044 l 5.214,1.63 c 0.407,0.128 0.683,0.5 0.687,0.926 l 0.645,84.216 c 10e-4,0.085 0.055,0.16 0.137,0.185 l 0.936,0.296 c 0.019,0.006 0.039,0.009 0.059,0.009 0.079,0 0.154,-0.05 0.183,-0.129 3.147,-8.556 9.718,-14.085 16.74,-14.085 1.352,0 2.72,0.206 4.065,0.613 l 0.343,-0.002 c 10.304,0 18.693,11.377 18.693,25.362 0,13.985 -8.389,25.362 -18.701,25.362 -1.352,0 -2.719,-0.205 -4.065,-0.612 z M 225.589,68.378 c -11.362,0 -22.303,0.057 -32.519,0.171 -60.403,0.667 -92.275,4.303 -110.027,23.157 -18.56,19.712 -21.638,56.07 -21.011,120.572 0.278,28.69 9.062,50.866 26.109,65.913 21.88,19.312 52.189,22.196 68.309,22.196 6.054,0 9.735,-0.411 9.771,-0.415 0.035,-0.004 0.07,-0.006 0.106,-0.006 0.295,0 0.572,0.129 0.758,0.354 0.212,0.256 0.279,0.598 0.18,0.915 -0.093,0.299 -9.135,30.143 8.361,53.147 13.729,18.049 39.715,27.201 77.239,27.201 2.578,0 5.255,-0.045 7.958,-0.132 1.705,-0.055 3.38,-0.137 5.041,-0.231 0.054,-0.003 0.104,-0.028 0.138,-0.069 0.193,-0.227 0.449,-0.352 0.72,-0.352 l 4.812,0.027 c 33.169,-2.84 57.034,-13.845 70.949,-32.708 21.84,-29.607 11.406,-68.689 11.297,-69.08 -0.106,-0.393 0.045,-0.817 0.376,-1.054 0.168,-0.119 0.364,-0.182 0.57,-0.182 0.196,0 0.386,0.058 0.549,0.169 0.221,0.15 5.503,3.691 12.26,3.691 6.003,0 11.31,-2.715 15.773,-8.071 12.305,-14.767 -0.074,-28.125 -0.607,-28.687 -0.297,-0.31 -0.356,-0.771 -0.15,-1.145 0.172,-0.313 0.501,-0.507 0.858,-0.507 0.063,0 0.127,0.006 0.192,0.019 0.108,0.021 11.388,2.19 26.841,2.19 18.284,0 44.254,-3.058 64.141,-17.63 17.014,-12.466 27.024,-31.33 29.753,-56.067 4.081,-36.97 -1.026,-64.471 -15.179,-81.736 C 477.178,75.414 462.855,73.824 462.25,73.763 460.96,73.708 334.567,68.379 225.589,68.378" /></g></g></g></g></g></g></g></g></g><g
       id="g188"><g
         clip-path="url(#clipPath194)"
         id="g190"><g
           id="g196"><g
             id="g198" /><g
             id="g210"><g
               style="opacity:0.14999402"
               id="g208"
               clip-path="url(#clipPath202)"><g
                 id="g206"
                 transform="translate(131.041,215.3809)"><path
                   id="path204"
                   style="fill:#414042;fill-opacity:1;fill-rule:nonzero;stroke:none"
                   d="m 0,0 c -0.071,0 -0.138,0.038 -0.173,0.101 -0.038,0.066 -0.035,0.148 0.007,0.211 5.021,7.491 11.628,12.001 18.602,12.7 0.006,10e-4 0.013,10e-4 0.02,10e-4 0.066,0 0.129,-0.033 0.166,-0.089 0.041,-0.062 0.045,-0.141 0.009,-0.206 L 12.187,0.839 C 12.154,0.778 12.092,0.739 12.023,0.734 12.023,0.734 0.004,0 0,0" /></g></g></g></g><g
           id="g212"><g
             id="g214" /><g
             id="g226"><g
               style="opacity:0.14999402"
               id="g224"
               clip-path="url(#clipPath218)"><g
                 id="g222"
                 transform="translate(126.3335,147.6665)"><path
                   id="path220"
                   style="fill:#414042;fill-opacity:1;fill-rule:nonzero;stroke:none"
                   d="m 0,0 c -7.408,0 -13.667,14.96 -13.667,32.667 0,16.761 5.71,31.375 12.729,32.577 0.356,0.061 0.654,0.089 0.938,0.089 0.206,0 0.409,-0.015 0.613,-0.038 C 0.802,65.274 0.989,65.239 1.176,65.199 1.635,65.1 2.094,64.943 2.54,64.733 8.883,61.746 13.667,47.96 13.667,32.667 13.667,19.944 10.312,7.892 5.318,2.677 4.849,2.187 4.353,1.751 3.845,1.381 L 3.648,1.244 C 3.067,0.845 2.479,0.54 1.898,0.337 1.259,0.114 0.621,0 0,0" /></g></g></g></g><g
           id="g228"><g
             id="g230" /><g
             id="g242"><g
               style="opacity:0.14999402"
               id="g240"
               clip-path="url(#clipPath234)"><g
                 id="g238"
                 transform="translate(151.4165,138.6665)"><path
                   id="path236"
                   style="fill:#414042;fill-opacity:1;fill-rule:nonzero;stroke:none"
                   d="m 0,0 c -5.069,0 -10.09,2.039 -14.52,5.895 -0.063,0.056 -0.085,0.146 -0.054,0.225 0.031,0.076 0.104,0.126 0.186,0.126 0.003,0 16.597,-0.744 16.647,-0.746 0.233,0 0.468,0.088 0.651,0.249 0.402,0.352 9.841,8.957 9.673,37.257 C 12.475,61.306 5.918,70.357 0.437,74.728 0.39,74.766 0.362,74.822 0.362,74.883 L 0.25,89.175 c -0.001,0.117 -0.029,0.24 -0.083,0.366 -0.026,0.063 -0.02,0.134 0.018,0.19 0.037,0.056 0.1,0.089 0.166,0.089 H 0.354 C 16.379,89.528 29.416,69.385 29.416,44.917 29.416,20.15 16.22,0 0,0" /></g></g></g></g><g
           id="g244"><g
             id="g246" /><g
             id="g258"><g
               style="opacity:0.14999402"
               id="g256"
               clip-path="url(#clipPath250)"><g
                 id="g254"
                 transform="translate(134.4336,147.0308)"><path
                   id="path252"
                   style="fill:#414042;fill-opacity:1;fill-rule:nonzero;stroke:none"
                   d="M 0,0 C -0.053,0.002 -0.103,0.026 -0.139,0.065 -0.612,0.583 -1.04,1.08 -1.442,1.574 -1.506,1.653 -1.5,1.768 -1.429,1.84 c 5.549,5.644 8.995,17.7 8.995,31.463 0,14.818 -4.192,27.969 -10.434,32.724 -0.066,0.051 -0.094,0.137 -0.07,0.217 0.024,0.08 0.096,0.136 0.179,0.142 l 12.729,0.777 2.018,0.143 c 0.442,-0.159 1.72,-0.722 3.366,-1.932 0.679,-0.5 1.356,-1.065 2.013,-1.679 C 21.967,59.399 27.471,50.869 27.566,34.63 27.711,10.213 20.372,0.853 18.899,-0.775 18.861,-0.817 18.807,-0.841 18.75,-0.841 18.748,-0.841 0,0 0,0" /></g></g></g></g><g
           id="g260"><g
             id="g262" /><g
             id="g274"><g
               style="opacity:0.14999402"
               id="g272"
               clip-path="url(#clipPath266)"><g
                 id="g270"
                 transform="translate(162,125.6665)"><path
                   id="path268"
                   style="fill:#414042;fill-opacity:1;fill-rule:nonzero;stroke:none"
                   d="m 0,0 c -11.264,0 -22.077,6.978 -29.668,19.143 -0.04,0.063 -0.041,0.142 -0.004,0.207 0.036,0.061 0.102,0.099 0.173,0.099 0.003,0 0.927,-0.042 0.927,-0.042 0.051,-0.002 0.1,-0.024 0.135,-0.06 C -23.164,13.886 -16.99,11 -10.583,11 c 17.322,0 31.416,21.047 31.416,46.917 0,25.87 -14.094,46.916 -31.416,46.916 -7.558,0 -14.866,-4.089 -20.576,-11.514 -0.04,-0.051 -0.099,-0.078 -0.159,-0.078 -0.037,0 -0.075,0.01 -0.109,0.032 -0.087,0.057 -0.116,0.171 -0.067,0.263 7.549,13.962 19.323,22.297 31.494,22.297 22.056,0 40,-25.981 40,-57.916 C 40,25.981 22.056,0 0,0" /></g></g></g></g><g
           id="g276"><g
             id="g278" /><g
             id="g290"><g
               style="opacity:0.14999402"
               id="g288"
               clip-path="url(#clipPath282)"><g
                 id="g286"
                 transform="translate(149.5645,215.0332)"><path
                   id="path284"
                   style="fill:#414042;fill-opacity:1;fill-rule:nonzero;stroke:none"
                   d="m 0,0 c -0.036,0 -0.071,0.01 -0.103,0.028 -1.444,0.865 -2.432,1.205 -2.473,1.219 -0.091,0.031 -0.186,0.051 -0.358,0.051 0,0 -0.751,-0.045 -0.754,-0.045 -0.069,0 -0.132,0.036 -0.169,0.093 -0.039,0.062 -0.042,0.139 -0.007,0.203 l 3.627,6.685 c 0.035,0.066 0.103,0.105 0.175,0.105 0.017,0 0.033,-0.002 0.049,-0.006 C 0.075,8.311 0.138,8.232 0.139,8.141 L 0.2,0.202 C 0.201,0.129 0.162,0.062 0.099,0.026 0.068,0.009 0.034,0 0,0" /></g></g></g></g><g
           id="g292"><g
             id="g294" /><g
             id="g306"><g
               style="opacity:0.14999402"
               id="g304"
               clip-path="url(#clipPath298)"><g
                 id="g302"
                 transform="translate(301.666,186.5483)"><path
                   id="path300"
                   style="fill:#414042;fill-opacity:1;fill-rule:nonzero;stroke:none"
                   d="m 0,0 c -0.059,0 -0.116,0.026 -0.155,0.074 -0.065,0.079 -0.059,0.195 0.013,0.267 4.91,4.946 7.726,12.527 7.726,20.798 0,10.234 -4.484,19.544 -11.424,23.718 -0.086,0.052 -0.12,0.159 -0.08,0.25 0.032,0.075 0.105,0.122 0.183,0.122 0.018,0 0.036,-0.003 0.054,-0.008 C 4.294,43.007 10.084,33.142 10.084,21.764 10.084,12.486 6.168,3.956 0.109,0.032 0.075,0.011 0.038,0 0,0" /></g></g></g></g><g
           id="g308"><g
             id="g310" /><g
             id="g322"><g
               style="opacity:0.14999402"
               id="g320"
               clip-path="url(#clipPath314)"><g
                 id="g318"
                 transform="translate(368.6547,291.6997)"><path
                   id="path316"
                   style="fill:#414042;fill-opacity:1;fill-rule:nonzero;stroke:none"
                   d="m 0,0 c 26.307,11.285 53.438,20.453 80.477,29.862 0.885,3.249 1.899,7.825 2.242,12.698 C 55.183,35.974 27.528,29.745 0.784,20.516 1.482,12.112 0.749,4.743 0,0" /></g></g></g></g><g
           id="g324"><g
             id="g326" /><g
             id="g338"><g
               style="opacity:0.14999402"
               id="g336"
               clip-path="url(#clipPath330)"><g
                 id="g334"
                 transform="translate(460.4031,270.9103)"><path
                   id="path332"
                   style="fill:#414042;fill-opacity:1;fill-rule:nonzero;stroke:none"
                   d="m 0,0 c 7.929,2.543 15.878,5.028 23.844,7.452 1.358,3.992 1.851,7.652 1.477,10.954 -28.872,-6.9 -58.094,-12.552 -85.966,-22.785 1.868,-7.398 -1.476,-13.693 -3.441,-16.57 -0.038,-0.055 -0.04,-0.128 -0.004,-0.185 C -43.495,-12.266 -21.258,-6.819 0,0" /></g></g></g></g><g
           id="g340"><g
             id="g342" /><g
             id="g354"><g
               style="opacity:0.14999402"
               id="g352"
               clip-path="url(#clipPath346)"><g
                 id="g350"
                 transform="translate(516.0509,128.8767)"><path
                   id="path348"
                   style="fill:#414042;fill-opacity:1;fill-rule:nonzero;stroke:none"
                   d="m 0,0 c -1.328,-15.948 -5.784,-28.612 -13.346,-37.815 -5.238,-6.374 -10.97,-9.723 -14.858,-11.41 -0.07,-0.031 -0.108,-0.107 -0.09,-0.182 0.017,-0.071 0.081,-0.121 0.154,-0.121 0.003,0 0.007,0 0.01,0 40.112,2.599 55.064,13.058 55.211,13.163 0.04,0.029 0.083,0.054 0.129,0.075 21.75,10.06 28.998,28.977 30.36,51.221 C 39.632,6.217 20.104,1.457 0,0" /></g></g></g></g><g
           id="g356"><g
             id="g358" /><g
             id="g370"><g
               style="opacity:0.14999402"
               id="g368"
               clip-path="url(#clipPath362)"><g
                 id="g366"
                 transform="translate(290.125,183.75)"><path
                   id="path364"
                   style="fill:#414042;fill-opacity:1;fill-rule:nonzero;stroke:none"
                   d="m 0,0 c -0.641,0 -1.312,0.057 -1.996,0.168 -5.651,0.921 -10.593,5.713 -13.219,12.816 -0.019,0.052 -0.016,0.109 0.007,0.158 0.025,0.049 0.068,0.086 0.12,0.103 L 5.175,19.63 c 0.387,0.121 0.659,0.46 0.696,0.863 l 1,11 c 0.029,0.319 -0.098,0.635 -0.34,0.845 -0.064,0.056 -0.086,0.146 -0.054,0.225 0.029,0.088 0.032,0.132 0.038,0.228 0.051,0.499 -0.223,0.933 -0.665,1.077 -7.819,2.535 -13.043,4.049 -13.975,4.049 -0.298,0 -0.856,-0.122 -1.756,-0.383 -0.633,-0.183 -1.446,-0.439 -2.494,-0.782 -0.583,-0.19 -1.257,-0.416 -1.992,-0.662 -0.021,-0.007 -0.042,-0.01 -0.064,-0.01 -0.055,0 -0.109,0.023 -0.147,0.065 -0.053,0.058 -0.068,0.142 -0.036,0.215 2.055,4.708 5.234,8.319 8.951,10.167 1.834,0.895 3.735,1.348 5.663,1.348 0.155,0 0.309,-0.007 0.463,-0.015 0,0 0.102,10e-4 0.103,0 C 9.851,47.431 17.125,36.925 17.125,23.937 17.125,12.787 11.701,3.209 3.935,0.645 2.639,0.217 1.315,0 0,0" /></g></g></g></g><g
           id="g372"><g
             id="g374" /><g
             id="g386"><g
               style="opacity:0.14999402"
               id="g384"
               clip-path="url(#clipPath378)"><g
                 id="g382"
                 transform="translate(264.5708,109.0459)"><path
                   id="path380"
                   style="fill:#414042;fill-opacity:1;fill-rule:nonzero;stroke:none"
                   d="m 0,0 -10.864,2.414 c -0.082,0.018 -0.144,0.086 -0.155,0.169 l -11.52,90.181 c -0.004,0.037 0.001,0.075 0.017,0.11 0.414,0.897 2.886,5.505 10.928,8.129 6.323,2.064 12.321,4.114 17.139,5.762 l 4.326,1.476 c 0.882,0.299 1.712,0.579 2.483,0.837 0.872,0.291 1.66,0.551 2.344,0.771 1.531,0.492 2.439,0.751 2.699,0.771 0.742,-0.031 6.077,-1.597 12.434,-3.642 0.08,-0.026 0.135,-0.099 0.139,-0.183 0.003,-0.084 -0.046,-0.161 -0.124,-0.193 L -5.951,91.879 c -0.39,-0.16 -0.638,-0.551 -0.619,-0.971 l 4,-86.334 c 0.025,-0.534 0.464,-0.953 0.998,-0.953 0.598,0.026 1.026,0.495 1,1.046 l -3.96,85.489 c -0.004,0.085 0.045,0.162 0.123,0.195 l 34.377,14.138 c 0.024,0.01 0.05,0.015 0.076,0.015 0.042,0 0.084,-0.013 0.119,-0.039 0.056,-0.041 0.087,-0.109 0.08,-0.179 l -0.737,-8.112 c -0.007,-0.08 -0.062,-0.148 -0.139,-0.173 L 5.795,88.574 C 5.38,88.444 5.099,88.063 5.096,87.628 L 4.437,1.503 C 4.436,1.417 4.379,1.34 4.296,1.314 L 0.103,0.004 C 0.083,-0.001 0.063,-0.005 0.043,-0.005 0.029,-0.005 0.014,-0.003 0,0" /></g></g></g></g><g
           id="g388"><g
             id="g390" /><g
             id="g402"><g
               style="opacity:0.14999402"
               id="g400"
               clip-path="url(#clipPath394)"><g
                 id="g398"
                 transform="translate(480.333,147.8637)"><path
                   id="path396"
                   style="fill:#414042;fill-opacity:1;fill-rule:nonzero;stroke:none"
                   d="m 0,0 c -15.29,-11.265 -33.22,-19.374 -51.015,-25.8 -16.367,-5.911 -33.308,-10.443 -50.036,-15.215 -17.359,-4.952 -34.82,-9.586 -52.47,-13.387 -33.358,-7.182 -66.718,-10.359 -100.814,-8.563 -32.581,1.716 -65.426,6.58 -96.518,16.677 -15.483,5.029 -32.681,11.816 -46.066,22.445 2.947,-14.47 7.683,-25.22 15.093,-33.09 16.406,-17.424 45.86,-20.783 101.681,-21.4 9.441,-0.105 19.552,-0.158 30.053,-0.158 100.711,0.001 217.517,4.926 218.709,4.977 0.559,0.056 13.796,1.526 24.866,15.031 C 5.218,-44.167 10.218,-22.232 8.399,6.803 5.7,4.427 2.913,2.146 0,0" /></g></g></g></g></g></g><g
       id="g404"><g
         clip-path="url(#clipPath410)"
         id="g406"><g
           id="g412"><g
             id="g414" /><g
             id="g426"><g
               style="opacity:0.14999402"
               id="g424"
               clip-path="url(#clipPath418)"><g
                 id="g422"
                 transform="translate(137.5945,198.5073)"><path
                   id="path420"
                   style="fill:#ffffff;fill-opacity:1;fill-rule:nonzero;stroke:none"
                   d="m 0,0 c -2.005,6.987 -5.11,12.192 -8.721,13.893 -0.446,0.209 -0.905,0.366 -1.364,0.465 -0.187,0.04 -0.374,0.075 -0.563,0.096 -0.204,0.023 -0.407,0.039 -0.613,0.039 -0.284,0 -0.582,-0.029 -0.938,-0.09 -7.019,-1.202 -12.729,-15.816 -12.729,-32.577 0,-5.298 0.564,-10.345 1.547,-14.824 C -20.465,-19.075 -12.336,-6.557 0,0" /></g></g></g></g><g
           id="g428"><g
             id="g430" /><g
             id="g442"><g
               style="opacity:0.14999402"
               id="g440"
               clip-path="url(#clipPath434)"><g
                 id="g438"
                 transform="translate(160.1017,236.5823)"><path
                   id="path436"
                   style="fill:#ffffff;fill-opacity:1;fill-rule:nonzero;stroke:none"
                   d="M 0,0 C 3.669,-0.464 7.325,-2.079 10.566,-4.158 6.823,0.075 2.121,2.607 -2.985,2.607 -8.372,2.607 -13.615,-0.36 -17.629,-5.509 -12.863,-1.363 -5.878,0.744 0,0" /></g></g></g></g><g
           id="g444"><g
             id="g446" /><g
             id="g458"><g
               style="opacity:0.14999402"
               id="g456"
               clip-path="url(#clipPath450)"><g
                 id="g454"
                 transform="translate(346.1996,378.8767)"><path
                   id="path452"
                   style="fill:#ffffff;fill-opacity:1;fill-rule:nonzero;stroke:none"
                   d="m 0,0 c 8.368,-5.464 15.464,-13.625 19.829,-22.628 1.574,-3.247 2.028,-6.56 2.942,-10.019 0.923,-3.497 1.831,-5.268 5.589,-5.14 6.814,0.231 13.861,3.38 20.164,5.708 5.434,2.006 10.794,4.27 16.496,5.389 6.11,1.199 12.305,1.921 18.404,3.18 2.097,0.433 5.576,0.568 6.011,2.496 0.355,1.576 -1.391,4.394 -2.118,5.714 C 82.323,-6.234 73.639,0.497 64.176,5.364 57.264,6.22 50.937,6.446 46.204,6.446 40.78,6.446 37.277,6.16 36.908,6.129 L -11.427,5.851 C -7.464,4.218 -3.609,2.357 0,0" /></g></g></g></g><g
           id="g460"><g
             id="g462" /><g
             id="g474"><g
               style="opacity:0.14999402"
               id="g472"
               clip-path="url(#clipPath466)"><g
                 id="g470"
                 transform="translate(408.0756,294.7905)"><path
                   id="path468"
                   style="fill:#ffffff;fill-opacity:1;fill-rule:nonzero;stroke:none"
                   d="m 0,0 c 2.007,-3.137 4.31,-6.352 8.395,-6.093 3.972,0.251 8.004,2.255 11.783,3.356 C 31.591,0.587 43.194,3.45 55.006,4.893 52.836,28.672 13.168,5.727 0,0" /></g></g></g></g><g
           id="g476"><g
             id="g478" /><g
             id="g490"><g
               style="opacity:0.14999402"
               id="g488"
               clip-path="url(#clipPath482)"><g
                 id="g486"
                 transform="translate(494.9284,234.3154)"><path
                   id="path484"
                   style="fill:#ffffff;fill-opacity:1;fill-rule:nonzero;stroke:none"
                   d="m 0,0 c -0.039,-0.024 -0.078,-0.037 -0.117,-0.056 -0.239,-2.827 -0.436,-6.563 2.823,-7.518 2.28,-0.668 5.478,0.905 7.456,1.833 4.005,1.88 7.527,4.532 11.294,6.807 13.24,7.995 26.121,18.78 41.722,21.529 C 55.47,41.89 9.466,5.759 0,0" /></g></g></g></g><g
           id="g492"><g
             id="g494" /><g
             id="g506"><g
               style="opacity:0.14999402"
               id="g504"
               clip-path="url(#clipPath498)"><g
                 id="g502"
                 transform="translate(565.9155,235.0716)"><path
                   id="path500"
                   style="fill:#ffffff;fill-opacity:1;fill-rule:nonzero;stroke:none"
                   d="m 0,0 c -1.435,0.382 -5.101,-1.839 -6.48,-2.39 -5.261,-2.106 -10.391,-4.545 -15.38,-7.231 -8.371,-4.509 -16.416,-9.723 -23.611,-15.954 0.373,-0.331 0.557,-0.865 0.24,-1.425 -1.905,-3.367 -1.815,-6.432 -0.894,-9.885 11.025,3.914 22.177,7.438 33.424,10.663 2.702,0.774 5.409,1.534 8.119,2.283 1.512,0.418 3.114,0.707 4.58,1.254 1.754,0.655 1.546,0.362 1.971,2.171 C 2.87,-16.676 2.6,-11.48 2.32,-7.566 2.213,-6.067 2.055,-0.547 0,0" /></g></g></g></g><g
           id="g508"><g
             id="g510" /><g
             id="g522"><g
               style="opacity:0.14999402"
               id="g520"
               clip-path="url(#clipPath514)"><g
                 id="g518"
                 transform="translate(450.151,253.3773)"><path
                   id="path516"
                   style="fill:#ffffff;fill-opacity:1;fill-rule:nonzero;stroke:none"
                   d="m 0,0 c 12.405,-2.024 24.607,-5.611 37.285,-1.889 8.612,2.528 16.875,6.28 25.376,9.175 7.536,2.567 15.3,5.145 22.026,9.49 C 55.079,23.695 28.146,7.69 0,0" /></g></g></g></g><g
           id="g524"><g
             id="g526" /><g
             id="g538"><g
               style="opacity:0.14999402"
               id="g536"
               clip-path="url(#clipPath530)"><g
                 id="g534"
                 transform="translate(275.5464,219.6398)"><path
                   id="path532"
                   style="fill:#ffffff;fill-opacity:1;fill-rule:nonzero;stroke:none"
                   d="M 0,0 C 0.021,0 0.043,0.004 0.063,0.012 0.795,0.267 1.467,0.5 2.047,0.698 3.091,1.054 3.901,1.319 4.531,1.51 5.428,1.782 5.984,1.911 6.283,1.914 6.583,1.918 7.34,1.767 8.482,1.482 c 2.407,4.502 6.425,8.751 10.811,9.52 -1.413,0.574 -2.9,0.91 -4.442,0.962 -0.001,10e-4 -0.103,-0.002 -0.103,-0.002 -0.155,0.006 -0.308,0.012 -0.463,0.01 -1.928,-0.024 -3.824,-0.5 -5.646,-1.417 C 4.945,8.661 1.81,5.011 -0.187,0.278 -0.217,0.205 -0.202,0.121 -0.148,0.063 -0.109,0.022 -0.055,-0.001 0,0" /></g></g></g></g><g
           id="g540"><g
             id="g542" /><g
             id="g554"><g
               style="opacity:0.14999402"
               id="g552"
               clip-path="url(#clipPath546)"><g
                 id="g550"
                 transform="translate(262.6326,213.2628)"><path
                   id="path548"
                   style="fill:#ffffff;fill-opacity:1;fill-rule:nonzero;stroke:none"
                   d="m 0,0 c -2.332,-0.788 -4.786,-1.611 -7.318,-2.446 4.28,-1.595 8.387,-3.91 12.297,-6.194 l 5.554,2.285 C 7.122,-4.084 3.253,-2.52 0,0" /></g></g></g></g><g
           id="g556"><g
             id="g558" /><g
             id="g570"><g
               style="opacity:0.14999402"
               id="g568"
               clip-path="url(#clipPath562)"><g
                 id="g566"
                 transform="translate(276.9141,218.1202)"><path
                   id="path564"
                   style="fill:#ffffff;fill-opacity:1;fill-rule:nonzero;stroke:none"
                   d="m 0,0 c -0.768,-0.257 -1.594,-0.536 -2.472,-0.834 l -2.531,-0.863 c 3.587,-1.52 7.013,-3.454 10.018,-5.911 l 5.073,2.086 C 6.686,-3.742 3.15,-2.216 0,0" /></g></g></g></g><g
           id="g572"><g
             id="g574" /><g
             id="g586"><g
               style="opacity:0.14999402"
               id="g584"
               clip-path="url(#clipPath578)"><g
                 id="g582"
                 transform="translate(115.0327,284.03)"><path
                   id="path580"
                   style="fill:#ffffff;fill-opacity:1;fill-rule:nonzero;stroke:none"
                   d="m 0,0 c -11.625,-3.281 -20.879,-10.512 -27.994,-20.143 -7.758,-10.502 -13.374,-22.498 -17.548,-34.829 -1.873,-5.537 -3.605,-11.459 -4.598,-17.465 0.229,0.494 0.459,0.986 0.694,1.471 5.461,11.266 13.109,21.477 21.17,31.002 18.438,21.785 44.13,34.268 69.964,45.228 C 35.186,4.931 28.715,4.215 22.245,3.432 14.812,2.533 7.232,2.041 0,0" /></g></g></g></g><g
           id="g588"><g
             id="g590" /><g
             id="g602"><g
               style="opacity:0.14999402"
               id="g600"
               clip-path="url(#clipPath594)"><g
                 id="g598"
                 transform="translate(300.0991,349.1706)"><path
                   id="path596"
                   style="fill:#ffffff;fill-opacity:1;fill-rule:nonzero;stroke:none"
                   d="m 0,0 c -6.145,12.343 -16.315,21.15 -29.85,24.596 -12.967,3.302 -26.793,1.858 -39.612,-1.402 -12.766,-3.246 -25.058,-8.916 -34.23,-18.597 -9.032,-9.535 -13.723,-21.883 -15.423,-34.74 0.232,-0.131 0.416,-0.361 0.486,-0.714 0.429,-2.151 0.825,-4.302 1.085,-6.47 17.082,9.54 36.513,14.732 55.05,20.622 11.028,3.505 22.1,6.906 33.357,9.606 C -19.794,-4.858 -8.646,-4.51 0,0" /></g></g></g></g><g
           id="g604"><g
             id="g606" /><g
             id="g618"><g
               style="opacity:0.14999402"
               id="g616"
               clip-path="url(#clipPath610)"><g
                 id="g614"
                 transform="translate(281.96,321.6857)"><path
                   id="path612"
                   style="fill:#ffffff;fill-opacity:1;fill-rule:nonzero;stroke:none"
                   d="m 0,0 c 8.367,0.888 16.722,1.901 25.052,3.083 1.677,0.238 4.973,0.006 5.977,1.55 0.508,0.781 -0.291,4.225 -0.33,5.094 -0.102,2.314 -0.14,4.631 -0.157,6.948 C 13.175,9.359 -4.643,3.089 -22.765,-2.104 -15.169,-1.497 -7.579,-0.805 0,0" /></g></g></g></g><g
           id="g620"><g
             id="g622" /><g
             id="g634"><g
               style="opacity:0.14999402"
               id="g632"
               clip-path="url(#clipPath626)"><g
                 id="g630"
                 transform="translate(381.9863,267.1275)"><path
                   id="path628"
                   style="fill:#ffffff;fill-opacity:1;fill-rule:nonzero;stroke:none"
                   d="m 0,0 c -3.465,-1.907 -6.891,-3.88 -10.368,-5.741 2.692,-5.115 5.025,-10.49 7.994,-15.405 C 3.738,-15.761 3.44,-6.847 0,0" /></g></g></g></g><g
           id="g636"><g
             id="g638" /><g
             id="g650"><g
               style="opacity:0.14999402"
               id="g648"
               clip-path="url(#clipPath642)"><g
                 id="g646"
                 transform="translate(457.7028,215.0759)"><path
                   id="path644"
                   style="fill:#ffffff;fill-opacity:1;fill-rule:nonzero;stroke:none"
                   d="m 0,0 c -14.769,9.677 -36.335,17.662 -55.454,15.617 2.901,-2.075 5.635,-4.401 8.234,-6.731 7.577,-6.793 14.362,-14.404 21.219,-21.905 C -8.84,-31.793 10.736,-48.214 28.405,-66.506 31.106,-41.197 21.738,-14.243 0,0" /></g></g></g></g><g
           id="g652"><g
             id="g654" /><g
             id="g666"><g
               style="opacity:0.14999402"
               id="g664"
               clip-path="url(#clipPath658)"><g
                 id="g662"
                 transform="translate(362.6725,274.0248)"><path
                   id="path660"
                   style="fill:#ffffff;fill-opacity:1;fill-rule:nonzero;stroke:none"
                   d="m 0,0 c 3.208,-3.093 5.673,-6.722 7.827,-10.575 3.463,1.856 6.874,3.828 10.325,5.729 C 13.914,1.8 6.618,5.546 0,0" /></g></g></g></g></g></g><g
       id="g668"><g
         clip-path="url(#clipPath674)"
         id="g670"><g
           transform="translate(546.4961,87.7554)"
           id="g676"><path
             id="path678"
             style="fill:#000000;fill-opacity:1;fill-rule:nonzero;stroke:none"
             d="m 0,0 c -0.069,-0.032 -0.135,-0.07 -0.196,-0.114 -0.187,-0.134 -19.119,-13.325 -69.681,-16.6 5.173,2.245 12.312,6.518 18.854,14.477 14.895,18.127 20.296,46.819 16.053,85.28 -2.862,25.937 -13.398,45.745 -31.315,58.872 -20.803,15.242 -47.893,18.441 -66.954,18.441 -11.175,0 -20.155,-1.072 -24.77,-1.762 3.397,4.974 9.362,17.04 -1.232,29.752 -4.951,5.942 -10.912,8.954 -17.718,8.954 -4.703,0 -8.76,-1.44 -11.44,-2.723 2.113,10.23 6.921,43.525 -12.503,69.871 -12.096,16.406 -31.367,27.173 -57.291,32.056 l 94.805,0.546 c 0.036,0.003 3.638,0.317 9.295,0.317 18.995,0 63.719,-3.629 68.735,-37.231 1.302,-14.323 -4.536,-29.98 -4.595,-30.137 -0.133,-0.356 -0.088,-0.759 0.119,-1.077 0.208,-0.318 0.559,-0.521 0.939,-0.542 0.242,-0.013 24.221,-1.466 32.923,-14.876 3.929,-6.054 4.16,-13.735 0.688,-22.832 -0.154,-0.401 -0.079,-0.856 0.193,-1.189 0.23,-0.278 0.568,-0.439 0.927,-0.439 0.067,0 0.135,0.006 0.201,0.018 0.087,0.014 8.843,1.457 20.744,1.457 14.888,0 35.604,-2.282 49.749,-13.151 9.483,-7.286 14.904,-17.571 16.112,-30.568 0.622,-6.683 1.384,-13.612 2.128,-20.359 C 40.452,74.813 46.328,21.427 0,0 m -355.482,-22.555 c -61.717,0.681 -94.275,4.39 -112.381,23.619 -18.934,20.11 -22.073,57.256 -21.433,123.169 0.284,29.282 9.245,51.911 26.634,67.26 22.327,19.707 53.269,22.649 69.726,22.649 6.174,0 9.932,-0.419 9.971,-0.423 0.043,-0.005 0.087,-0.007 0.13,-0.007 0.362,0 0.701,0.158 0.93,0.434 0.259,0.314 0.343,0.734 0.221,1.123 -0.095,0.305 -9.325,30.711 8.518,54.172 14,18.406 40.523,27.739 78.832,27.739 2.643,0 5.379,-0.046 8.133,-0.135 1.742,-0.056 3.452,-0.14 5.15,-0.236 0.231,-0.271 0.546,-0.431 0.888,-0.431 h 0.007 l 4.916,0.028 c 33.842,-2.899 58.201,-14.125 72.396,-33.368 22.262,-30.179 11.633,-70.076 11.523,-70.476 -0.131,-0.483 0.053,-1.002 0.461,-1.294 0.205,-0.146 0.446,-0.223 0.698,-0.223 0.241,0 0.475,0.072 0.674,0.207 0.224,0.153 5.587,3.741 12.426,3.741 6.077,0 11.453,-2.753 15.977,-8.183 12.475,-14.97 -0.072,-28.502 -0.612,-29.071 -0.364,-0.381 -0.437,-0.946 -0.183,-1.406 0.211,-0.384 0.614,-0.622 1.052,-0.622 0.077,0 0.154,0.008 0.233,0.023 0.113,0.022 11.624,2.236 27.413,2.236 18.669,0 45.183,-3.121 65.478,-17.991 17.352,-12.714 27.563,-31.958 30.348,-57.2 4.167,-37.754 -1.041,-65.827 -15.479,-83.441 -12.183,-14.861 -26.701,-16.493 -27.383,-16.561 -0.006,0 -0.012,-0.001 -0.015,-0.001 -1.411,-0.06 -129.993,-5.505 -241.995,-5.506 -11.598,0 -22.786,0.059 -33.254,0.175 m 392.636,149.261 -0.024,0.217 c -0.73,6.634 -1.484,13.494 -2.098,20.099 -1.274,13.689 -7.007,24.54 -17.039,32.249 -14.774,11.351 -35.851,13.734 -50.931,13.734 -8.753,0 -15.81,-0.779 -19.419,-1.276 3.018,9.028 2.48,16.792 -1.601,23.082 -8.051,12.404 -27.143,15.243 -33.226,15.838 1.381,4.124 5.342,17.322 4.208,29.772 -2.806,18.807 -17.714,31.514 -43.112,36.749 -10.497,2.164 -20.818,2.618 -27.628,2.618 -5.983,0 -9.786,-0.342 -9.787,-0.343 l -111.639,-0.638 c -3.543,0.302 -7.238,0.516 -10.982,0.637 -2.772,0.09 -5.528,0.135 -8.19,0.135 -39.124,0 -66.3,-9.657 -80.774,-28.701 -15.909,-20.933 -11.28,-46.763 -9.343,-54.624 -1.835,0.134 -4.717,0.283 -8.444,0.283 -16.817,0 -48.452,-3.019 -71.365,-23.236 -17.927,-15.819 -27.165,-39.049 -27.456,-69.045 -0.646,-66.553 2.592,-104.134 22.086,-124.838 18.7,-19.861 51.693,-23.684 114.1,-24.374 10.421,-0.115 21.617,-0.173 33.28,-0.173 112.355,0 240.491,5.439 242.072,5.507 h 0.003 c 0.001,0 0.015,0.001 0.024,0.001 0,0 0.001,-0.001 0.001,-0.001 0.002,0 0.005,0 0.007,0.001 57.372,1.934 78.971,15.912 81.214,17.481 47.806,22.174 41.837,76.396 36.063,128.846" /></g><g
           transform="translate(162,125.8667)"
           id="g680"><path
             id="path682"
             style="fill:#000000;fill-opacity:1;fill-rule:nonzero;stroke:none"
             d="m 0,0 c -11.213,0 -21.944,6.942 -29.499,19.048 0.32,-0.014 0.742,-0.033 0.919,-0.041 5.31,-5.499 11.531,-8.407 17.997,-8.407 17.433,0 31.616,21.136 31.616,47.117 0,25.98 -14.183,47.116 -31.616,47.116 -7.691,0 -14.968,-4.094 -20.735,-11.592 7.538,13.942 19.095,22.192 31.318,22.192 21.946,0 39.8,-25.891 39.8,-57.716 C 39.8,25.892 21.946,0 0,0 m -49.133,54.467 c 0,16.667 5.635,31.193 12.562,32.379 0.346,0.06 0.634,0.087 0.904,0.087 0.199,0 0.395,-0.015 0.592,-0.037 0,0 0,0 0.001,0 0.181,-0.021 0.361,-0.054 0.541,-0.093 0,0 0,0 0,0 0.445,-0.096 0.889,-0.248 1.321,-0.451 0,0 0,0 0.001,0 6.277,-2.956 11.011,-16.664 11.011,-31.885 0,-12.675 -3.333,-24.672 -8.293,-29.852 -0.461,-0.481 -0.947,-0.909 -1.446,-1.273 l -0.193,-0.134 c -0.001,0 -0.001,0 -0.001,0 -0.564,-0.388 -1.136,-0.685 -1.701,-0.882 C -34.453,22.109 -35.069,22 -35.667,22 c -7.299,0 -13.466,14.868 -13.466,32.467 m 30.185,35.981 c -1.129,-0.069 -10.004,-0.611 -12.011,-0.734 5.001,7.462 11.528,11.919 18.456,12.613 z M -8.333,18.1 c 0.291,0 0.571,0.106 0.791,0.297 0.405,0.355 9.91,9.022 9.742,37.41 -0.109,18.361 -6.687,27.464 -12.221,31.877 l -0.112,14.292 c -0.002,0.153 -0.039,0.302 -0.1,0.443 C 5.716,102.129 18.632,82.193 18.632,57.717 18.632,33.06 5.526,13 -10.583,13 -15.629,13 -20.589,15.03 -24.972,18.846 -21.97,18.711 -8.335,18.1 -8.333,18.1 m -11.604,69.883 c 0,0 0,10e-4 0,10e-4 0.074,0.004 2.353,0.143 2.353,0.143 0,0 0,0 0.001,0 0.074,0.005 2.019,0.144 2.019,0.144 0.346,-0.142 1.603,-0.696 3.232,-1.895 0.673,-0.495 1.345,-1.054 1.996,-1.663 4.571,-4.27 10.041,-12.754 10.136,-28.92 0.143,-24.206 -7.008,-33.492 -8.616,-35.27 0,0 -17.382,0.78 -18.741,0.841 -0.471,0.515 -0.896,1.009 -1.296,1.5 5.586,5.681 9.053,17.757 9.053,31.603 0,15.004 -4.209,28.08 -10.513,32.883 2.183,0.133 10.376,0.633 10.376,0.633 m 7.502,1.384 c -1.42,0.848 -2.399,1.197 -2.512,1.236 -0.119,0.04 -0.239,0.062 -0.423,0.062 -0.007,0 -0.431,-0.026 -0.754,-0.045 l 3.627,6.686 z M 0,117.833 c -14.665,0 -28.053,-10.621 -35.836,-28.416 -0.364,-0.022 -1.404,-0.086 -1.404,-0.086 -0.295,-0.018 -0.56,-0.154 -0.768,-0.365 -7.838,-2.43 -13.526,-16.929 -13.526,-34.499 0,-19.552 6.97,-34.867 15.867,-34.867 0.153,0 0.312,0.011 0.513,0.026 0.212,-0.208 0.474,-0.345 0.767,-0.358 0,0 1.593,-0.071 2.03,-0.091 C -24.297,5.464 -12.509,-2.4 0,-2.4 c 23.269,0 42.2,26.968 42.2,60.117 0,33.148 -18.931,60.116 -42.2,60.116" /></g><g
           transform="translate(301.6662,186.7487)"
           id="g684"><path
             id="path686"
             style="fill:#000000;fill-opacity:1;fill-rule:nonzero;stroke:none"
             d="m 0,0 c 4.898,4.933 7.784,12.613 7.784,20.939 0,10.334 -4.56,19.702 -11.521,23.889 C 4.115,42.648 9.884,32.97 9.884,21.564 9.884,12.258 5.983,3.874 0,0 m -26.569,10.055 2.153,0.679 1.895,0.597 16.215,5.109 c 0.463,0.146 0.791,0.553 0.835,1.036 l 0.934,10.276 0.066,0.724 c 0.035,0.389 -0.119,0.764 -0.408,1.015 0.008,0.018 0.015,0.038 0.021,0.057 0.023,0.072 0.026,0.138 0.032,0.244 0,0 0,10e-4 0,10e-4 0,0 0,0 0,0 0.06,0.573 -0.27,1.093 -0.804,1.266 -3.763,1.221 -12.664,4.059 -14.036,4.059 -0.322,0 -0.881,-0.121 -1.812,-0.391 -0.634,-0.184 -1.45,-0.44 -2.5,-0.783 -0.583,-0.191 -1.259,-0.416 -1.994,-0.663 2.037,4.666 5.149,8.225 8.857,10.068 0.004,0.002 0.008,0.001 0.011,0.003 1.795,0.879 3.666,1.324 5.563,1.324 0.152,0 0.303,-0.007 0.454,-0.015 l 0.084,0.003 c 0.006,-0.001 0.011,-0.007 0.017,-0.007 9.18,-0.419 16.37,-10.837 16.37,-23.718 0,-11.066 -5.368,-20.566 -13.053,-23.103 -1.276,-0.421 -2.579,-0.635 -3.872,-0.635 -0.631,0 -1.292,0.056 -1.964,0.166 -5.592,0.911 -10.462,5.651 -13.064,12.688 m -4.791,1.007 c -0.498,-0.156 -0.835,-0.613 -0.84,-1.135 l -0.659,-86.125 -4.193,-1.31 -10.864,2.414 -11.52,90.181 c 0.461,0.998 2.905,5.444 10.808,8.024 6.333,2.066 12.313,4.11 17.162,5.768 l 2.003,0.685 2.303,0.784 c 0.882,0.3 1.712,0.58 2.483,0.838 0.87,0.29 1.657,0.55 2.341,0.77 1.519,0.488 2.419,0.744 2.653,0.762 0.704,-0.031 6.081,-1.614 12.358,-3.634 l -16.911,-6.955 -1.998,-0.822 -2.493,-1.025 -1.972,-0.811 -12.424,-5.11 c -0.467,-0.192 -0.765,-0.66 -0.742,-1.165 l 4,-86.334 c 0.03,-0.641 0.556,-1.144 1.198,-1.144 0.003,0 0.054,10e-4 0.056,10e-4 0.661,0.031 1.174,0.594 1.144,1.254 l -3.961,85.49 11.041,4.541 1.932,0.795 2.46,1.011 1.956,0.805 16.987,6.986 -0.737,-8.111 -15.42,-4.859 -1.901,-0.599 -2.397,-0.756 -1.899,-0.598 z m 24.319,36.639 c -1.406,0 -2.824,-0.214 -4.216,-0.635 l -0.284,0.01 c -7.372,0 -14.196,-5.808 -17.409,-14.802 l -3.337,-1.139 c -4.798,-1.64 -10.769,-3.682 -17.085,-5.743 -10.182,-3.323 -12.345,-9.5 -12.433,-9.761 -0.056,-0.17 -0.074,-0.354 -0.051,-0.532 l 11.666,-91.334 c 0.064,-0.5 0.438,-0.909 0.93,-1.019 l 12,-2.666 c 0.084,-0.019 0.172,-0.029 0.26,-0.029 0.122,0 0.242,0.019 0.358,0.055 l 5.334,1.666 c 0.499,0.157 0.838,0.614 0.842,1.137 l 0.66,86.126 0.957,0.302 c 3.25,-8.835 10.024,-14.536 17.308,-14.536 1.406,0 2.824,0.215 4.215,0.635 l 0.285,-0.01 c 10.656,0 19.325,11.726 19.325,26.138 0,14.412 -8.669,26.137 -19.325,26.137" /></g></g></g></g></svg>